<?xml version="1.0" encoding="utf-8"?>
<!-- Generator: Adobe Illustrator 25.4.1, SVG Export Plug-In . SVG Version: 6.00 Build 0)  -->
<svg version="1.1" xmlns="http://www.w3.org/2000/svg" xmlns:xlink="http://www.w3.org/1999/xlink" x="0px" y="0px"
	 viewBox="0 0 170 80" style="enable-background:new 0 0 170 80;" xml:space="preserve">
<style type="text/css">
	.st0{fill:#5A595B;}
	.st1{fill:#1A1A19;}
	.st2{fill:#ED7D04;}
	.st3{fill-rule:evenodd;clip-rule:evenodd;fill:url(#SVGID_1_);}
	.st4{fill-rule:evenodd;clip-rule:evenodd;fill:url(#SVGID_00000141455905903014659680000004639751760691682465_);}
</style>
<g id="Background">
</g>
<g id="Objects">
	<g>
		<g>
			<path class="st0" d="M150.4,38.23h-7.15l-4.71,10.32l-4.85-10.32h-7.46l8.58,15.27v7.99h6.87V53.5L150.4,38.23z M126.96,60.55
				V49.46h-7.67v4.22h1.67v3.14c-0.46,0.17-0.94,0.28-1.4,0.34c-0.46,0.05-0.94,0.08-1.42,0.08c-1.08-0.01-2.01-0.2-2.78-0.59
				c-0.77-0.39-1.41-0.93-1.91-1.61c-0.49-0.68-0.86-1.46-1.1-2.34c-0.23-0.88-0.35-1.82-0.35-2.81c0.01-1.19,0.2-2.24,0.58-3.15
				c0.38-0.91,0.92-1.69,1.62-2.31c0.7-0.63,1.53-1.1,2.49-1.42c0.96-0.32,2.02-0.48,3.19-0.48c1.03-0.01,2.05,0.1,3.06,0.3
				c1.01,0.21,1.97,0.53,2.9,0.99l0.21-4.99c-0.83-0.21-1.69-0.38-2.57-0.52c-0.88-0.14-1.77-0.24-2.67-0.31
				c-0.89-0.07-1.77-0.1-2.64-0.1c-1.44,0-2.82,0.17-4.15,0.51c-1.32,0.34-2.54,0.85-3.66,1.51c-1.12,0.66-2.09,1.48-2.92,2.45
				c-0.83,0.97-1.48,2.08-1.94,3.34c-0.46,1.26-0.69,2.65-0.7,4.18c0.01,1.6,0.23,3.03,0.66,4.31c0.43,1.28,1.05,2.4,1.84,3.36
				c0.8,0.96,1.74,1.76,2.84,2.4c1.1,0.64,2.32,1.12,3.66,1.44c1.34,0.32,2.77,0.48,4.29,0.48c1.5,0.01,2.99-0.1,4.47-0.31
				C124.05,61.36,125.51,61.01,126.96,60.55z M97.13,45.34c-0.01,0.62-0.13,1.12-0.37,1.51c-0.24,0.39-0.56,0.69-0.96,0.91
				c-0.41,0.21-0.87,0.35-1.38,0.44c-0.51,0.08-1.03,0.12-1.58,0.12h-2.23v-5.72h2.37c0.53-0.01,1.05,0.03,1.55,0.1
				c0.49,0.06,0.94,0.2,1.33,0.39c0.4,0.19,0.7,0.47,0.93,0.84C97.01,44.28,97.13,44.76,97.13,45.34z M105.05,61.49l-2.37-7.39
				c-0.24-0.76-0.52-1.4-0.87-1.91c-0.34-0.51-0.77-0.92-1.29-1.22c-0.52-0.3-1.17-0.53-1.96-0.67c1.06-0.21,1.99-0.55,2.81-1.03
				c0.82-0.49,1.47-1.13,1.94-1.92c0.47-0.79,0.71-1.74,0.72-2.87c-0.01-0.96-0.17-1.8-0.49-2.51c-0.32-0.71-0.76-1.3-1.32-1.78
				c-0.56-0.48-1.2-0.87-1.92-1.15c-0.73-0.28-1.49-0.49-2.3-0.62c-0.81-0.13-1.62-0.19-2.45-0.19H83.92v23.26h6.73v-8.82h1.88
				c0.6,0,1.1,0.05,1.48,0.15c0.38,0.1,0.69,0.27,0.93,0.5c0.23,0.23,0.44,0.52,0.59,0.9c0.16,0.37,0.33,0.82,0.48,1.35l1.81,5.93
				H105.05z M82.34,61.49v-4.5H71.35v-5.02h10.29v-4.46H71.35v-4.78h10.71v-4.5H64.62v23.26H82.34z M62.14,61.49V38.23h-5.96v18.06
				l-6.77-18.06H39.26v23.26h6V43.46l6.73,18.03H62.14z M37.69,61.49v-4.5H26.7v-5.02h10.29v-4.46H26.7v-4.78h10.71v-4.5H19.97
				v23.26H37.69z"/>
			<path class="st1" d="M164.79,26.47h-7.22c0-0.52,0.07-1.06,0.22-1.63c0.15-0.56,0.37-1.08,0.68-1.57c0.3-0.49,0.7-0.88,1.18-1.19
				c0.48-0.3,1.06-0.46,1.73-0.47c0.66,0.01,1.21,0.16,1.65,0.45c0.44,0.29,0.79,0.67,1.05,1.15c0.26,0.48,0.44,1,0.55,1.56
				C164.74,25.35,164.79,25.91,164.79,26.47 M169.18,29.05v-1.08c0-1.33-0.15-2.56-0.44-3.68c-0.3-1.12-0.76-2.1-1.38-2.93
				c-0.63-0.83-1.44-1.48-2.44-1.94c-0.99-0.46-2.19-0.69-3.59-0.7c-1.27,0.01-2.42,0.23-3.47,0.68c-1.04,0.45-1.94,1.08-2.7,1.89
				c-0.76,0.81-1.34,1.76-1.76,2.86c-0.41,1.1-0.62,2.3-0.62,3.6c0.01,1.94,0.35,3.59,1.04,4.96c0.69,1.37,1.7,2.42,3.05,3.15
				c1.34,0.73,2.99,1.09,4.95,1.1c0.7,0,1.42-0.03,2.17-0.09c0.74-0.06,1.48-0.16,2.21-0.3c0.73-0.13,1.42-0.32,2.08-0.55
				l-0.21-3.24c-0.49,0.27-1.05,0.49-1.65,0.66c-0.6,0.17-1.21,0.31-1.84,0.4c-0.63,0.09-1.22,0.13-1.78,0.13
				c-1-0.01-1.88-0.2-2.67-0.6c-0.78-0.4-1.4-0.96-1.85-1.7c-0.46-0.73-0.69-1.6-0.72-2.62H169.18z M152.81,36.23l-0.17-3.42
				c-0.59,0.3-1.2,0.52-1.83,0.66c-0.63,0.15-1.27,0.21-1.94,0.21c-0.87-0.01-1.63-0.16-2.29-0.47c-0.66-0.31-1.22-0.73-1.67-1.28
				c-0.45-0.54-0.79-1.17-1.02-1.88c-0.23-0.72-0.35-1.48-0.35-2.3c0.01-1.13,0.22-2.12,0.65-2.98c0.42-0.86,1.04-1.53,1.85-2.02
				c0.81-0.49,1.79-0.74,2.95-0.75c0.63,0,1.24,0.08,1.85,0.24c0.6,0.16,1.19,0.37,1.74,0.63l0.21-3.42
				c-0.81-0.24-1.63-0.43-2.47-0.55c-0.84-0.12-1.68-0.18-2.52-0.18c-1.4,0-2.66,0.21-3.81,0.62c-1.15,0.41-2.14,1-2.98,1.78
				c-0.84,0.78-1.48,1.73-1.94,2.84c-0.45,1.12-0.69,2.38-0.69,3.8c0.01,1.91,0.39,3.56,1.13,4.93c0.75,1.37,1.81,2.42,3.2,3.16
				c1.38,0.74,3.03,1.11,4.95,1.12c0.87,0.01,1.74-0.05,2.6-0.16C151.12,36.7,151.97,36.51,152.81,36.23z M139.75,18.86
				c-0.23-0.07-0.45-0.12-0.69-0.14c-0.23-0.02-0.46-0.03-0.71-0.03c-0.59,0.01-1.15,0.11-1.66,0.33c-0.51,0.21-0.98,0.49-1.39,0.85
				c-0.42,0.36-0.78,0.77-1.1,1.22c-0.31,0.45-0.57,0.92-0.77,1.4l-0.1-3.38h-4.53c0.07,0.65,0.12,1.29,0.14,1.94
				c0.02,0.65,0.04,1.29,0.04,1.94v13.6h4.81v-7.81c-0.01-0.69,0.07-1.38,0.22-2.06c0.15-0.69,0.39-1.31,0.73-1.88
				c0.33-0.56,0.78-1.02,1.33-1.36c0.56-0.34,1.24-0.52,2.05-0.53c0.24,0,0.49,0.02,0.75,0.06c0.26,0.03,0.51,0.1,0.75,0.19
				L139.75,18.86z M126.97,36.58c-0.07-0.65-0.12-1.31-0.14-1.97c-0.02-0.66-0.03-1.32-0.03-1.97V19.07h-4.81v9.63
				c0.01,0.58-0.05,1.16-0.16,1.72c-0.11,0.56-0.3,1.07-0.56,1.53c-0.27,0.46-0.62,0.83-1.08,1.1c-0.45,0.28-1.01,0.42-1.69,0.42
				c-0.64-0.01-1.15-0.13-1.54-0.36c-0.39-0.23-0.68-0.55-0.88-0.95c-0.19-0.4-0.33-0.84-0.39-1.34c-0.06-0.49-0.09-1.01-0.09-1.53
				V19.07h-4.81v11.3c-0.01,1.34,0.19,2.51,0.59,3.49c0.4,0.98,1.03,1.74,1.89,2.28c0.87,0.54,2.01,0.81,3.41,0.82
				c0.82,0,1.58-0.12,2.3-0.37c0.71-0.24,1.35-0.62,1.92-1.1c0.57-0.49,1.05-1.1,1.44-1.84l0.1,2.93H126.97z M71.13,29.89
				c-0.01-1.2-0.24-2.21-0.7-3.02c-0.46-0.81-1.09-1.49-1.88-2.03c-0.8-0.55-1.71-1.01-2.75-1.4l-2.51-0.98
				c-0.39-0.15-0.79-0.31-1.2-0.51c-0.41-0.19-0.8-0.41-1.15-0.65c-0.35-0.24-0.65-0.52-0.87-0.84c-0.21-0.31-0.33-0.67-0.34-1.07
				c0.01-0.58,0.16-1.05,0.45-1.42c0.29-0.37,0.67-0.66,1.13-0.88c0.47-0.21,0.97-0.35,1.49-0.44c0.53-0.09,1.04-0.13,1.53-0.12
				c0.6,0,1.2,0.03,1.82,0.1c0.62,0.08,1.23,0.19,1.83,0.33c0.6,0.15,1.18,0.34,1.73,0.58l0.17-3.84c-0.96-0.26-1.92-0.45-2.9-0.56
				c-0.98-0.12-1.96-0.17-2.96-0.17c-0.86,0-1.73,0.06-2.62,0.21c-0.88,0.14-1.74,0.37-2.55,0.68c-0.81,0.31-1.54,0.73-2.18,1.24
				c-0.65,0.51-1.16,1.15-1.53,1.9c-0.38,0.74-0.57,1.62-0.58,2.63c0.01,1.05,0.23,1.95,0.65,2.69c0.42,0.75,0.99,1.38,1.71,1.91
				c0.73,0.53,1.54,0.99,2.46,1.4l2.37,1.05c0.43,0.18,0.88,0.38,1.35,0.6c0.48,0.22,0.92,0.47,1.35,0.73
				c0.42,0.27,0.77,0.59,1.03,0.94c0.27,0.35,0.41,0.74,0.41,1.19c-0.01,0.62-0.14,1.13-0.4,1.55c-0.26,0.42-0.6,0.75-1.02,1
				c-0.43,0.24-0.91,0.42-1.44,0.53c-0.53,0.1-1.06,0.16-1.61,0.16c-1.14,0.01-2.26-0.09-3.35-0.3c-1.1-0.22-2.15-0.58-3.17-1.09
				l-0.17,3.98c1.16,0.36,2.33,0.62,3.53,0.78c1.2,0.16,2.41,0.24,3.62,0.23c0.92,0,1.83-0.08,2.71-0.25
				c0.89-0.16,1.73-0.42,2.51-0.77c0.78-0.35,1.48-0.81,2.08-1.37c0.6-0.55,1.07-1.22,1.41-2C70.95,31.8,71.12,30.9,71.13,29.89z
				 M53.22,36.58V25.25c0.01-1.34-0.19-2.5-0.6-3.48c-0.41-0.97-1.05-1.72-1.92-2.24c-0.87-0.53-2.01-0.8-3.41-0.8
				c-0.82,0-1.59,0.12-2.3,0.36c-0.72,0.24-1.37,0.6-1.94,1.09C42.47,20.66,42,21.27,41.61,22l-0.07-2.93H37
				c0.07,0.65,0.12,1.3,0.14,1.95c0.02,0.66,0.04,1.31,0.04,1.95v13.6h4.81v-9.66c-0.01-0.58,0.05-1.15,0.16-1.71
				c0.11-0.56,0.3-1.06,0.56-1.52c0.27-0.45,0.62-0.82,1.08-1.09c0.45-0.27,1.02-0.41,1.69-0.42c0.64,0.01,1.16,0.12,1.55,0.36
				c0.39,0.23,0.69,0.55,0.89,0.95c0.2,0.4,0.33,0.84,0.4,1.34c0.07,0.49,0.1,1.01,0.09,1.53v10.22H53.22z M35.17,36.58
				c-0.07-0.65-0.12-1.31-0.14-1.97C35.01,33.95,35,33.29,35,32.64V19.07h-4.81v9.63c0.01,0.58-0.05,1.16-0.16,1.72
				c-0.11,0.56-0.3,1.07-0.56,1.53c-0.27,0.46-0.62,0.83-1.08,1.1c-0.45,0.28-1.01,0.42-1.69,0.42c-0.64-0.01-1.15-0.13-1.54-0.36
				c-0.39-0.23-0.68-0.55-0.88-0.95c-0.19-0.4-0.33-0.84-0.39-1.34c-0.06-0.49-0.09-1.01-0.09-1.53V19.07h-4.81v11.3
				c-0.01,1.34,0.19,2.51,0.59,3.49c0.4,0.98,1.03,1.74,1.89,2.28c0.87,0.54,2.01,0.81,3.41,0.82c0.82,0,1.58-0.12,2.3-0.37
				c0.71-0.24,1.35-0.62,1.92-1.1c0.57-0.49,1.05-1.1,1.44-1.84l0.1,2.93H35.17z M17.75,29.89c-0.01-1.2-0.24-2.21-0.7-3.02
				c-0.46-0.81-1.09-1.49-1.88-2.03c-0.8-0.55-1.71-1.01-2.75-1.4l-2.51-0.98c-0.39-0.15-0.79-0.31-1.2-0.51
				c-0.41-0.19-0.8-0.41-1.15-0.65c-0.35-0.24-0.65-0.52-0.87-0.84c-0.22-0.31-0.33-0.67-0.34-1.07c0.01-0.58,0.16-1.05,0.45-1.42
				c0.29-0.37,0.67-0.66,1.13-0.88c0.47-0.21,0.97-0.35,1.49-0.44c0.53-0.09,1.04-0.13,1.53-0.12c0.6,0,1.2,0.03,1.82,0.1
				c0.62,0.08,1.23,0.19,1.83,0.33c0.6,0.15,1.18,0.34,1.73,0.58l0.17-3.84c-0.96-0.26-1.92-0.45-2.9-0.56
				c-0.98-0.12-1.96-0.17-2.96-0.17c-0.86,0-1.73,0.06-2.62,0.21c-0.88,0.14-1.74,0.37-2.55,0.68c-0.81,0.31-1.54,0.73-2.18,1.24
				c-0.65,0.51-1.16,1.15-1.53,1.9c-0.38,0.74-0.57,1.62-0.58,2.63c0.01,1.05,0.23,1.95,0.65,2.69c0.42,0.75,0.99,1.38,1.71,1.91
				c0.73,0.53,1.54,0.99,2.46,1.4l2.37,1.05c0.43,0.18,0.88,0.38,1.35,0.6c0.48,0.22,0.92,0.47,1.35,0.73
				c0.42,0.27,0.77,0.59,1.03,0.94c0.27,0.35,0.41,0.74,0.41,1.19c-0.01,0.62-0.14,1.13-0.4,1.55c-0.26,0.42-0.6,0.75-1.02,1
				c-0.43,0.24-0.91,0.42-1.44,0.53c-0.53,0.1-1.06,0.16-1.61,0.16c-1.14,0.01-2.26-0.09-3.35-0.3c-1.1-0.22-2.15-0.58-3.17-1.09
				l-0.17,3.98c1.16,0.36,2.33,0.62,3.53,0.78c1.2,0.16,2.41,0.24,3.62,0.23c0.92,0,1.83-0.08,2.71-0.25
				c0.89-0.16,1.73-0.42,2.51-0.77c0.78-0.35,1.48-0.81,2.08-1.37c0.6-0.55,1.07-1.22,1.41-2C17.57,31.8,17.75,30.9,17.75,29.89z"/>
			<rect x="1.18" y="65.14" class="st2" width="168" height="0.52"/>
			<radialGradient id="SVGID_1_" cx="90.3215" cy="21.6503" r="20.0168" gradientUnits="userSpaceOnUse">
				<stop  offset="1.614687e-07" style="stop-color:#DD0B15"/>
				<stop  offset="0.9936" style="stop-color:#61160F"/>
			</radialGradient>
			<path class="st3" d="M92.77,1.94c0.1,0.95-0.41,1.9-1.42,2.85c1.96-0.3,3.92-0.56,5.89-0.69c1.24-1.13,0.25-1.68-1.07-2.14
				C94.94,1.51,93.78,1.52,92.77,1.94 M79.09,12.8c5.22-0.74,10.33-2.47,15.29-5.49C89.35,8.43,84.25,10.08,79.09,12.8z M78.9,18.27
				c-3.13,0.86-6.13,4.22-6.35,4.3c-0.22,0.08-2.24-0.59-2.23-2.24c0-1.07,1.89-2.79,1.76-2.35C71.9,18.59,77.38,18.77,78.9,18.27z
				 M102.45,6.89c-1.37,2.18-3.74,3.82-6.15,5.23c2.9-0.44,6.01-0.71,8.72-0.72c0.96-1.27,1.26-2.36,0.52-3.09
				C104.26,7.39,103.3,6.88,102.45,6.89z M80.93,22.61c6.31-1.1,12.46-3.57,18.51-6.81C93.27,17.54,87.1,19.66,80.93,22.61z
				 M73.72,28.84c3.14,0.06,6.54,0.04,8.79-0.29c-1.61,1.3-3.78,2.79-5.89,4.43c-1.96,0.03-3.24-0.82-3.87-2.14
				C72.67,30.02,73,29.37,73.72,28.84z M108.24,15.88c-1.86,2.13-4.71,4.14-8.08,6.1c3.42-0.39,6.78-0.75,8.24-0.07
				c1.04-1.28,2.04-2.58,1.92-4.31C109.81,16.9,109.13,16.32,108.24,15.88z M84.94,32.39c6.71-1.16,12.62-3.46,18.12-6.38
				C97.37,26.66,91.36,28.58,84.94,32.39z M79.98,37.49c2.57,0.22,5.19-0.07,7.85-0.7c-1.48,0.69-2.33,1.78-2.83,3.1
				c-1.3,0.18-2.38,0.08-3.15-0.45C81.69,39.51,79.84,37.6,79.98,37.49z M102.38,31.55c2.44-1.37,4.78-2.78,6-4.73
				c0.51,0.29,0.93,0.66,1.13,1.21c0.21,1.73-1.53,2.93-2.97,4.22C105.65,31.45,104.07,31.45,102.38,31.55z M91.05,38.95
				c3.45-0.61,6.77-1.79,9.97-3.5C97.83,35.52,94.53,36.59,91.05,38.95z M89.71,41.61c6.18,0.43,10.62-1.43,13.94-4.8
				C99.35,39.08,94.76,40.78,89.71,41.61z M76.66,6.88c-0.82,2.31,1.22,2.69,2.61,2.01c1.39-0.68-4.09,2.5-5.02,3.18
				c-0.45,0.33-1.01-0.22-0.85-0.88C73.75,9.65,75.51,7.89,76.66,6.88z"/>
			
				<radialGradient id="SVGID_00000117664687173587936060000013984828463216102285_" cx="90.3435" cy="21.5768" r="20.0556" gradientUnits="userSpaceOnUse">
				<stop  offset="0" style="stop-color:#FFEA0F"/>
				<stop  offset="0.9936" style="stop-color:#EE7C05"/>
			</radialGradient>
			<path style="fill-rule:evenodd;clip-rule:evenodd;fill:url(#SVGID_00000117664687173587936060000013984828463216102285_);" d="
				M76.57,33.03c8.4-8.68,26.73-13.01,31.87-11.1c1.46,0.36,2.2,1.25,1.85,2.88c-0.23,1.12-0.46,2.25-0.68,3.37
				c-3.55-6.9-25.94,3.86-27.82,6.5c-2.53,2.56-2.43,2.49,0.1,4.79c-1.17-0.43-2.49-0.71-4.55-2.59
				C75.53,35.24,76.24,33.95,76.57,33.03 M72.59,22.53c-2.46,2.53-1.62,5.43,0.17,8.37c2.32-6.3,9.48-9.02,16.25-11.64
				c9.49-3.35,18.29-6.16,21.32-1.54c-0.51-1.8-1.09-3.31-1.46-4.17c-0.23-1.26-1.57-1.88-3.67-2.06
				C95.93,10.38,79.27,15.47,72.59,22.53z M74.07,12.13c-2,1.42-3.64,3.49-3.77,8.2c3.23-7.9,29.98-17.51,35.3-11.94
				c-1.36-2.62-3.98-4.48-8.41-4.41C88.32,4.84,80.54,7.44,74.07,12.13z M76.49,8.11c3.88-3.84,10.71-5.23,17.95-6.44
				C87.4,1,81.28,2.32,76.65,6.89C76.51,7.37,76.44,7.53,76.49,8.11z M87.68,36.75c3.89-2.7,8.77-4.53,14.72-5.22
				c1.8-0.15,3.37-0.09,4.14,0.7c0.5,0.63-0.05,1.5-0.76,2.4c-0.73,0.78-1.45,1.56-2.18,2.34c0.71-4.39-16.2,1.38-13.77,4.68
				c-0.88-0.06-1.77-0.13-2.65-0.19c-1.7-0.09-2.33-0.7-2.24-1.65C85.55,38.47,86.47,37.45,87.68,36.75z"/>
		</g>
		<g>
			<path class="st1" d="M23.43,69.61h1.17l3.15,7.22h-1.33l-0.73-1.73h-3.39l-0.74,1.73h-1.29L23.43,69.61z M25.23,73.98l-1.24-2.87
				l-1.23,2.87H25.23z"/>
			<path class="st1" d="M28.84,71.42h1.24v0.84c0.35-0.51,0.85-0.95,1.69-0.95c1.22,0,1.92,0.82,1.92,2.08v3.44h-1.24v-3.07
				c0-0.84-0.42-1.32-1.16-1.32c-0.72,0-1.22,0.5-1.22,1.34v3.05h-1.24V71.42z"/>
			<path class="st1" d="M37.93,75.79l0.76-0.9c0.69,0.59,1.37,0.93,2.26,0.93c0.78,0,1.27-0.36,1.27-0.9V74.9
				c0-0.51-0.29-0.79-1.62-1.09c-1.53-0.37-2.38-0.82-2.38-2.14v-0.02c0-1.23,1.02-2.08,2.45-2.08c1.04,0,1.87,0.32,2.6,0.9
				l-0.68,0.95c-0.64-0.48-1.29-0.74-1.95-0.74c-0.74,0-1.17,0.38-1.17,0.85v0.02c0,0.55,0.33,0.8,1.7,1.13
				c1.52,0.37,2.3,0.91,2.3,2.1v0.02c0,1.34-1.05,2.14-2.56,2.14C39.82,76.93,38.79,76.55,37.93,75.79z"/>
			<path class="st1" d="M44.96,69.66h1.26v2.98h3.42v-2.98h1.26v7.17h-1.26v-3.02h-3.42v3.02h-1.26V69.66z"/>
			<path class="st1" d="M52.13,69.66h1.39l2.16,5.51l2.15-5.51h1.36l-2.98,7.22h-1.11L52.13,69.66z"/>
			<path class="st1" d="M63.5,69.66h5.31v1.13h-4.05v1.86h3.59v1.13h-3.59v1.92h4.1v1.13H63.5V69.66z"/>
			<path class="st1" d="M70.22,71.42h1.24v0.84c0.35-0.51,0.85-0.95,1.69-0.95c1.22,0,1.92,0.82,1.92,2.08v3.44h-1.24v-3.07
				c0-0.84-0.42-1.32-1.16-1.32c-0.72,0-1.22,0.5-1.22,1.34v3.05h-1.24V71.42z"/>
			<path class="st1" d="M76.28,74.15v-0.02c0-1.55,1.09-2.82,2.64-2.82c1.72,0,2.59,1.35,2.59,2.91c0,0.11-0.01,0.22-0.02,0.35
				h-3.97c0.13,0.88,0.76,1.37,1.56,1.37c0.6,0,1.03-0.22,1.46-0.64l0.73,0.64c-0.51,0.61-1.22,1.01-2.21,1.01
				C77.49,76.95,76.28,75.81,76.28,74.15z M80.28,73.75c-0.08-0.8-0.55-1.42-1.37-1.42c-0.76,0-1.29,0.59-1.4,1.42H80.28z"/>
			<path class="st1" d="M82.76,71.42H84v1.22c0.34-0.81,0.96-1.36,1.91-1.32v1.31h-0.07c-1.08,0-1.84,0.71-1.84,2.14v2.06h-1.24
				V71.42z"/>
			<path class="st1" d="M86.83,77.84l0.46-0.93c0.57,0.36,1.19,0.57,1.92,0.57c1.11,0,1.71-0.57,1.71-1.66v-0.42
				c-0.45,0.58-1.01,0.99-1.9,0.99c-1.27,0-2.46-0.94-2.46-2.53v-0.02c0-1.6,1.2-2.54,2.46-2.54c0.91,0,1.47,0.42,1.89,0.92v-0.81
				h1.24v4.3c0,0.91-0.23,1.59-0.69,2.04c-0.49,0.49-1.25,0.73-2.22,0.73C88.35,78.49,87.52,78.26,86.83,77.84z M90.93,73.87v-0.02
				c0-0.89-0.73-1.49-1.59-1.49c-0.86,0-1.54,0.59-1.54,1.49v0.02c0,0.89,0.69,1.49,1.54,1.49C90.21,75.35,90.93,74.74,90.93,73.87z
				"/>
			<path class="st1" d="M93.53,78.17l0.42-0.92c0.23,0.12,0.47,0.2,0.73,0.2c0.35,0,0.56-0.15,0.77-0.62l-2.25-5.4h1.32l1.54,4.01
				l1.4-4.01h1.29l-2.15,5.56c-0.43,1.11-0.91,1.52-1.78,1.52C94.28,78.5,93.91,78.37,93.53,78.17z"/>
			<path class="st1" d="M102.7,73.27v-0.02c0-2.04,1.53-3.7,3.69-3.7c1.32,0,2.12,0.46,2.81,1.11l-0.81,0.93
				c-0.57-0.53-1.19-0.89-2.01-0.89c-1.37,0-2.36,1.13-2.36,2.53v0.02c0,1.4,0.99,2.55,2.36,2.55c0.88,0,1.44-0.36,2.06-0.93
				l0.81,0.82c-0.75,0.78-1.57,1.27-2.91,1.27C104.26,76.95,102.7,75.32,102.7,73.27z"/>
			<path class="st1" d="M110.04,74.16v-0.02c0-1.55,1.23-2.82,2.89-2.82s2.88,1.26,2.88,2.8v0.02c0,1.53-1.23,2.82-2.9,2.82
				C111.26,76.95,110.04,75.69,110.04,74.16z M114.56,74.16v-0.02c0-0.95-0.69-1.74-1.66-1.74c-0.99,0-1.63,0.78-1.63,1.72v0.02
				c0,0.94,0.69,1.74,1.65,1.74C113.93,75.88,114.56,75.09,114.56,74.16z"/>
			<path class="st1" d="M117.07,71.42h1.24v0.82c0.35-0.48,0.82-0.93,1.65-0.93c0.78,0,1.32,0.38,1.61,0.95
				c0.44-0.57,1.01-0.95,1.83-0.95c1.18,0,1.89,0.75,1.89,2.07v3.45h-1.24v-3.07c0-0.86-0.4-1.32-1.1-1.32
				c-0.68,0-1.16,0.47-1.16,1.34v3.05h-1.24v-3.08c0-0.84-0.41-1.31-1.09-1.31c-0.69,0-1.16,0.51-1.16,1.35v3.04h-1.24V71.42z"/>
			<path class="st1" d="M126.8,71.42h1.24v0.9c0.4-0.56,0.96-1.01,1.83-1.01c1.28,0,2.52,1.01,2.52,2.8v0.02
				c0,1.79-1.23,2.8-2.52,2.8c-0.89,0-1.45-0.45-1.83-0.95v2.48h-1.24V71.42z M131.13,74.14v-0.02c0-1.04-0.71-1.73-1.55-1.73
				c-0.84,0-1.58,0.7-1.58,1.73v0.02c0,1.04,0.74,1.73,1.58,1.73C130.43,75.87,131.13,75.2,131.13,74.14z"/>
			<path class="st1" d="M136.97,76.83v-0.67c-0.37,0.44-0.93,0.78-1.75,0.78c-1.02,0-1.92-0.58-1.92-1.67v-0.02
				c0-1.2,0.93-1.77,2.19-1.77c0.66,0,1.07,0.09,1.49,0.22v-0.1c0-0.75-0.47-1.16-1.33-1.16c-0.6,0-1.05,0.13-1.55,0.34l-0.34-0.99
				c0.59-0.26,1.18-0.45,2.06-0.45c1.6,0,2.37,0.84,2.37,2.28v3.2H136.97z M137,74.57c-0.32-0.12-0.76-0.22-1.24-0.22
				c-0.78,0-1.24,0.32-1.24,0.84v0.02c0,0.51,0.46,0.8,1.04,0.8c0.82,0,1.43-0.46,1.43-1.14V74.57z"/>
			<path class="st1" d="M139.67,71.42h1.24v0.84c0.35-0.51,0.85-0.95,1.69-0.95c1.22,0,1.92,0.82,1.92,2.08v3.44h-1.24v-3.07
				c0-0.84-0.42-1.32-1.16-1.32c-0.72,0-1.22,0.5-1.22,1.34v3.05h-1.24V71.42z"/>
			<path class="st1" d="M145.7,78.17l0.42-0.92c0.23,0.12,0.47,0.2,0.73,0.2c0.35,0,0.56-0.15,0.77-0.62l-2.25-5.4h1.32l1.54,4.01
				l1.4-4.01h1.29l-2.15,5.56c-0.43,1.11-0.91,1.52-1.78,1.52C146.45,78.5,146.07,78.37,145.7,78.17z"/>
		</g>
	</g>
</g>
</svg>
